<svg xmlns="http://www.w3.org/2000/svg" version="1.1" xmlns:xlink="http://www.w3.org/1999/xlink" xmlns:svgjs="http://svgjs.dev/svgjs" width="500" height="512"><svg width="500" height="512" viewBox="0 0 500 512" fill="none" xmlns="http://www.w3.org/2000/svg">
<rect y="12" width="500" height="500" rx="30" fill="#0E1F2F"></rect>
<path d="M75.9679 427.392V383.392C82.3039 383.392 87.7012 383.04 92.1599 382.336C96.6185 381.632 100.139 380.341 102.72 378.464C105.301 376.352 107.179 373.419 108.352 369.664C109.525 365.675 110.112 360.629 110.112 354.528V134.88H173.12V357.344C173.12 372.832 171.125 385.856 167.136 396.416C163.381 406.741 156.693 414.485 147.072 419.648C137.451 424.811 123.957 427.392 106.592 427.392H75.9679Z" fill="white"></path>
<path d="M220.863 420V365.792H275.071V420H220.863Z" fill="#15B572"></path>
</svg><style>@media (prefers-color-scheme: light) { :root { filter: none; } }
@media (prefers-color-scheme: dark) { :root { filter: none; } }
</style></svg>